<svg xmlns="http://www.w3.org/2000/svg" xmlns:xlink="http://www.w3.org/1999/xlink" width="1920" height="1080" viewBox="0 0 1920 1080"><defs><clipPath id="b"><rect width="1920" height="1080"/></clipPath></defs><g id="a" clip-path="url(#b)"><rect width="1920" height="1080" fill="#bba7ed"/><rect width="1559" height="850" transform="translate(398 118)" fill="#f5dc6d"/><rect width="1099" height="190" transform="translate(0 228)" fill="#70f1bb"/><g transform="translate(59 46)" fill="none" stroke="#fff" stroke-width="2"><rect width="1799" height="988" rx="18" stroke="none"/><rect x="1" y="1" width="1797" height="986" rx="17" fill="none"/></g><line x2="96" y2="96" transform="translate(1022.5 209.5)" fill="none" stroke="#f5dc6d" stroke-width="10"/><line x2="133" y2="133" transform="translate(985.5 209.5)" fill="none" stroke="#f5dc6d" stroke-width="10"/><line x2="163" y2="163" transform="translate(944.5 209.5)" fill="none" stroke="#f5dc6d" stroke-width="10"/><line x2="203" y2="203" transform="translate(904.5 209.5)" fill="none" stroke="#f5dc6d" stroke-width="10"/><line x2="219" y2="218" transform="translate(858.5 209.5)" fill="none" stroke="#f5dc6d" stroke-width="10"/><line x2="219" y2="218" transform="translate(813.5 209.5)" fill="none" stroke="#f5dc6d" stroke-width="10"/><line x2="219" y2="218" transform="translate(766.5 209.5)" fill="none" stroke="#f5dc6d" stroke-width="10"/><line x2="219" y2="218" transform="translate(725.5 209.5)" fill="none" stroke="#f5dc6d" stroke-width="10"/><line x2="219" y2="218" transform="translate(681.5 209.5)" fill="none" stroke="#f5dc6d" stroke-width="10"/><line x2="219" y2="218" transform="translate(639.5 209.5)" fill="none" stroke="#f5dc6d" stroke-width="10"/><line x2="219" y2="218" transform="translate(594.5 209.5)" fill="none" stroke="#f5dc6d" stroke-width="10"/><line x2="219" y2="218" transform="translate(549.5 209.5)" fill="none" stroke="#f5dc6d" stroke-width="10"/><line x2="219" y2="218" transform="translate(549.5 209.5)" fill="none" stroke="#f5dc6d" stroke-width="10"/><line x2="219" y2="218" transform="translate(506.5 209.5)" fill="none" stroke="#f5dc6d" stroke-width="10"/><line x2="219" y2="218" transform="translate(462.5 209.5)" fill="none" stroke="#f5dc6d" stroke-width="10"/><line x2="219" y2="218" transform="translate(420.5 209.5)" fill="none" stroke="#f5dc6d" stroke-width="10"/><line x2="190" y2="199" transform="translate(404.5 228.5)" fill="none" stroke="#f5dc6d" stroke-width="10"/><text transform="translate(439 371)" fill="#fff" font-size="133" font-family="SourceCodePro-Regular, Source Code Pro"><tspan x="0" y="0">Edit Run</tspan></text><line x2="254.5" transform="translate(1702.5 480.5)" fill="none" stroke="#fff" stroke-width="2"/><line x2="254.5" transform="translate(1702.5 496.5)" fill="none" stroke="#fff" stroke-width="2"/><line x2="254.5" transform="translate(1702.5 512.5)" fill="none" stroke="#fff" stroke-width="2"/><line x2="254.5" transform="translate(1702.5 528.5)" fill="none" stroke="#fff" stroke-width="2"/><line x2="254.5" transform="translate(1702.5 544.5)" fill="none" stroke="#fff" stroke-width="2"/><line x2="254.5" transform="translate(1702.5 560.5)" fill="none" stroke="#fff" stroke-width="2"/><line x2="254.5" transform="translate(1702.5 576.5)" fill="none" stroke="#fff" stroke-width="2"/><line x2="254.5" transform="translate(1702.5 592.5)" fill="none" stroke="#fff" stroke-width="2"/><line x2="254.5" transform="translate(1702.5 608.5)" fill="none" stroke="#fff" stroke-width="2"/><line x2="254.5" transform="translate(1702.5 624.5)" fill="none" stroke="#fff" stroke-width="2"/><line x2="254.5" transform="translate(1702.5 640.5)" fill="none" stroke="#fff" stroke-width="2"/><line x2="254.5" transform="translate(1702.5 656.5)" fill="none" stroke="#fff" stroke-width="2"/><line x2="254.5" transform="translate(1702.5 672.5)" fill="none" stroke="#fff" stroke-width="2"/><line x2="254.5" transform="translate(1702.5 688.5)" fill="none" stroke="#fff" stroke-width="2"/><line x2="254.5" transform="translate(1702.5 704.5)" fill="none" stroke="#fff" stroke-width="2"/><line x2="254.5" transform="translate(1702.5 720.5)" fill="none" stroke="#fff" stroke-width="2"/><line x2="254.5" transform="translate(1702.5 736.5)" fill="none" stroke="#fff" stroke-width="2"/><line x2="254.5" transform="translate(1702.5 752.5)" fill="none" stroke="#fff" stroke-width="2"/><line x2="254.5" transform="translate(1702.5 768.5)" fill="none" stroke="#fff" stroke-width="2"/><line x2="254.5" transform="translate(1702.5 784.5)" fill="none" stroke="#fff" stroke-width="2"/><line x2="254.5" transform="translate(1702.5 800.5)" fill="none" stroke="#fff" stroke-width="2"/><line x2="254.5" transform="translate(1702.5 816.5)" fill="none" stroke="#fff" stroke-width="2"/><line x2="254.5" transform="translate(1702.5 832.5)" fill="none" stroke="#fff" stroke-width="2"/><line x2="254.5" transform="translate(1702.5 848.5)" fill="none" stroke="#fff" stroke-width="2"/><line x2="254.5" transform="translate(1702.5 864.5)" fill="none" stroke="#fff" stroke-width="2"/><line x2="254.5" transform="translate(1702.5 880.5)" fill="none" stroke="#fff" stroke-width="2"/><line x2="254.5" transform="translate(1702.5 896.5)" fill="none" stroke="#fff" stroke-width="2"/><line x2="254.5" transform="translate(1702.5 912.5)" fill="none" stroke="#fff" stroke-width="2"/><line x2="254.5" transform="translate(1702.5 928.5)" fill="none" stroke="#fff" stroke-width="2"/><line x2="254.5" transform="translate(1702.5 944.5)" fill="none" stroke="#fff" stroke-width="2"/><line x2="254.5" transform="translate(1702.5 960.5)" fill="none" stroke="#fff" stroke-width="2"/><line x2="254.5" transform="translate(1702.5 976.5)" fill="none" stroke="#fff" stroke-width="2"/><line x2="254.5" transform="translate(1702.5 993.5)" fill="none" stroke="#fff" stroke-width="2"/><line x2="254.5" transform="translate(1702.5 1009.5)" fill="none" stroke="#fff" stroke-width="2"/><line x2="254.5" transform="translate(1702.5 1025.5)" fill="none" stroke="#fff" stroke-width="2"/><line x2="254.5" transform="translate(1702.5 1041.5)" fill="none" stroke="#fff" stroke-width="2"/><line x2="254.5" transform="translate(1702.5 1057.5)" fill="none" stroke="#fff" stroke-width="2"/><line x2="254.5" transform="translate(1702.5 1073.5)" fill="none" stroke="#fff" stroke-width="2"/><line x2="198.234" transform="translate(301.266 418.5)" fill="none" stroke="#fff" stroke-width="2"/><line x2="198.234" transform="translate(301.266 434.5)" fill="none" stroke="#fff" stroke-width="2"/><line x2="198.234" transform="translate(301.266 450.5)" fill="none" stroke="#fff" stroke-width="2"/><line x2="198.234" transform="translate(301.266 466.5)" fill="none" stroke="#fff" stroke-width="2"/><line x2="198.234" transform="translate(301.266 482.5)" fill="none" stroke="#fff" stroke-width="2"/><line x2="198.234" transform="translate(301.266 498.5)" fill="none" stroke="#fff" stroke-width="2"/><line x2="198.234" transform="translate(301.266 514.5)" fill="none" stroke="#fff" stroke-width="2"/><line x2="198.234" transform="translate(301.266 530.5)" fill="none" stroke="#fff" stroke-width="2"/><line x2="198.234" transform="translate(301.266 546.5)" fill="none" stroke="#fff" stroke-width="2"/><line x2="198.234" transform="translate(301.266 562.5)" fill="none" stroke="#fff" stroke-width="2"/><line x2="198.234" transform="translate(301.266 578.5)" fill="none" stroke="#fff" stroke-width="2"/><line x2="198.234" transform="translate(301.266 594.5)" fill="none" stroke="#fff" stroke-width="2"/><line x2="198.234" transform="translate(301.266 610.5)" fill="none" stroke="#fff" stroke-width="2"/><line x2="198.234" transform="translate(301.266 626.5)" fill="none" stroke="#fff" stroke-width="2"/><line x2="198.234" transform="translate(301.266 642.5)" fill="none" stroke="#fff" stroke-width="2"/><line x2="198.234" transform="translate(301.266 658.5)" fill="none" stroke="#fff" stroke-width="2"/><line x2="198.234" transform="translate(301.266 674.5)" fill="none" stroke="#fff" stroke-width="2"/><line x2="198.234" transform="translate(301.266 690.5)" fill="none" stroke="#fff" stroke-width="2"/><line x2="198.234" transform="translate(301.266 706.5)" fill="none" stroke="#fff" stroke-width="2"/><line x2="198.234" transform="translate(301.266 722.5)" fill="none" stroke="#fff" stroke-width="2"/><line x2="198.234" transform="translate(301.266 738.5)" fill="none" stroke="#fff" stroke-width="2"/><line x2="198.234" transform="translate(301.266 754.5)" fill="none" stroke="#fff" stroke-width="2"/><line x2="198.234" transform="translate(301.266 770.5)" fill="none" stroke="#fff" stroke-width="2"/><line x2="198.234" transform="translate(301.266 786.5)" fill="none" stroke="#fff" stroke-width="2"/><line x2="198.234" transform="translate(301.266 802.5)" fill="none" stroke="#fff" stroke-width="2"/><line x2="198.234" transform="translate(301.266 818.5)" fill="none" stroke="#fff" stroke-width="2"/><line x2="198.234" transform="translate(301.266 834.5)" fill="none" stroke="#fff" stroke-width="2"/><line x2="198.234" transform="translate(301.266 850.5)" fill="none" stroke="#fff" stroke-width="2"/><line x2="198.234" transform="translate(301.266 866.5)" fill="none" stroke="#fff" stroke-width="2"/><line x2="198.234" transform="translate(301.266 882.5)" fill="none" stroke="#fff" stroke-width="2"/><line x2="198.234" transform="translate(301.266 898.5)" fill="none" stroke="#fff" stroke-width="2"/><line x2="198.234" transform="translate(301.266 914.5)" fill="none" stroke="#fff" stroke-width="2"/><line x2="198.234" transform="translate(301.266 931.5)" fill="none" stroke="#fff" stroke-width="2"/><line x2="198.234" transform="translate(301.266 947.5)" fill="none" stroke="#fff" stroke-width="2"/><line x2="198.234" transform="translate(301.266 963.5)" fill="none" stroke="#fff" stroke-width="2"/><line x2="198.234" transform="translate(301.266 979.5)" fill="none" stroke="#fff" stroke-width="2"/><line x2="198.234" transform="translate(301.266 995.5)" fill="none" stroke="#fff" stroke-width="2"/><line x2="198.234" transform="translate(301.266 1011.5)" fill="none" stroke="#fff" stroke-width="2"/><line x2="198.234" transform="translate(301.266 1027.5)" fill="none" stroke="#fff" stroke-width="2"/><line x2="198.234" transform="translate(301.266 1043.5)" fill="none" stroke="#fff" stroke-width="2"/><line x2="198.234" transform="translate(301.266 1059.5)" fill="none" stroke="#fff" stroke-width="2"/><line x2="198.234" transform="translate(301.266 1075.5)" fill="none" stroke="#fff" stroke-width="2"/><path d="M34.394,4.5A35.9,35.9,0,0,0,1,27.269a35.873,35.873,0,0,0,66.788,0A35.9,35.9,0,0,0,34.394,4.5Zm0,37.948A15.179,15.179,0,1,1,49.573,27.269,15.185,15.185,0,0,1,34.394,42.448Zm0-24.286A9.107,9.107,0,1,0,43.5,27.269,9.1,9.1,0,0,0,34.394,18.161Z" transform="translate(305 460.219)" fill="#fff"/><path d="M26.287,54.609V36.394H38.43V54.609H53.609V30.322h9.107L32.358,3,2,30.322h9.107V54.609Z" transform="translate(304.072 305)" fill="#fff"/><path d="M35.394,17.179H29.322V29.322H17.179v6.072H29.322V47.537h6.072V35.394H47.537V29.322H35.394ZM32.358,2A30.358,30.358,0,1,0,62.716,32.358,30.369,30.369,0,0,0,32.358,2Zm0,54.644A24.286,24.286,0,1,1,56.645,32.358,24.319,24.319,0,0,1,32.358,56.644Z" transform="translate(311 613.187)" fill="#fff"/><path d="M3,46.265V57.65H14.384L47.96,24.074,36.576,12.689Zm53.764-31a3.023,3.023,0,0,0,0-4.28l-7.1-7.1a3.023,3.023,0,0,0-4.28,0L39.824,9.441,51.209,20.825l5.556-5.556Z" transform="translate(314.072 757.908)" fill="#fff"/><path d="M35.07,13.623A6.072,6.072,0,1,0,29,7.552,6.089,6.089,0,0,0,35.07,13.623Zm-10.929,42.2,3.036-13.358,6.375,6.072V66.75h6.072V43.981L33.248,37.91,35.07,28.8a22.23,22.23,0,0,0,16.7,7.59V30.32a14.933,14.933,0,0,1-13.054-7.286l-3.036-4.857a6.261,6.261,0,0,0-5.161-3.036c-.911,0-1.518.3-2.429.3L12.3,22.123V36.392h6.072V26.07l5.464-2.125L18.98,48.535,4.1,45.5,2.89,51.571Z" transform="translate(315.182 898.75)" fill="#fff"/><rect width="569" height="80" rx="7" transform="translate(530 443)" fill="#fff"/><rect width="569" height="80" rx="7" transform="translate(530 552)" fill="#fff"/><rect width="569" height="80" rx="7" transform="translate(530 661)" fill="#fff"/><rect width="569" height="80" rx="7" transform="translate(530 770)" fill="#fff"/><rect width="569" height="80" rx="7" transform="translate(530 879)" fill="#fff"/><line y2="517" transform="translate(813.5 443.5)" fill="none" stroke="#f5dc6d" stroke-width="2"/><text transform="translate(1209 467)" fill="#fff" font-size="30" font-family="SourceCodePro-Regular, Source Code Pro"><tspan x="0" y="0">Title</tspan></text><line x2="538.249" transform="translate(1209.854 480.5)" fill="none" stroke="#fff" stroke-width="2"/><rect width="170" height="97" rx="7" transform="translate(1209 745)" fill="#fff"/><text transform="translate(1218 783)" fill="#f5dc6d" font-size="30" font-family="SourceCodePro-Regular, Source Code Pro"><tspan x="0" y="0">Walk</tspan></text><rect width="538" height="85" rx="7" transform="translate(1209 512)" fill="#fff"/><text transform="translate(1219 567)" fill="#f5dc6d" font-size="30" font-family="SourceCodePro-Regular, Source Code Pro"><tspan x="0" y="0">Time</tspan></text><rect width="538" height="85" rx="7" transform="translate(1209 630)" fill="#fff"/><text transform="translate(1219 684)" fill="#f5dc6d" font-size="30" font-family="SourceCodePro-Regular, Source Code Pro"><tspan x="0" y="0">Distance</tspan></text><rect width="138" height="64" rx="7" transform="translate(1420 871)" fill="#fff"/><text transform="translate(1453 914)" fill="#f5dc6d" font-size="30" font-family="SourceCodePro-Bold, Source Code Pro" font-weight="700"><tspan x="0" y="0">Save</tspan></text><path d="M11.5,0,23,20H0Z" transform="translate(1722 566) rotate(180)" fill="#f5dc6d"/><path d="M11.5,0,23,20H0Z" transform="translate(1722 694) rotate(180)" fill="#f5dc6d"/><rect width="170" height="97" rx="7" transform="translate(1393 745)" fill="#fff"/><rect width="170" height="97" rx="7" transform="translate(1578 745)" fill="#fff"/><text transform="translate(1397 780)" fill="#f5dc6d" font-size="27" font-family="SourceCodePro-Regular, Source Code Pro"><tspan x="0" y="0">Power Walk</tspan></text><text transform="translate(1587 780)" fill="#f5dc6d" font-size="30" font-family="SourceCodePro-Regular, Source Code Pro"><tspan x="0" y="0">Run</tspan></text><line x2="538" transform="translate(1209.5 800.5)" fill="none" stroke="#f5dc6d" stroke-width="1"/><text transform="translate(550 494)" fill="#70f1bb" font-size="30" font-family="SourceCodePro-Regular, Source Code Pro"><tspan x="0" y="0">Run One</tspan></text><text transform="translate(550 603)" fill="#70f1bb" font-size="30" font-family="SourceCodePro-Regular, Source Code Pro"><tspan x="0" y="0">Run Two</tspan></text><text transform="translate(550 712)" fill="#70f1bb" font-size="30" font-family="SourceCodePro-Regular, Source Code Pro"><tspan x="0" y="0">Run Three</tspan></text><text transform="translate(550 821)" fill="#70f1bb" font-size="30" font-family="SourceCodePro-Regular, Source Code Pro"><tspan x="0" y="0">Run Four</tspan></text><text transform="translate(550 930)" fill="#70f1bb" font-size="30" font-family="SourceCodePro-Regular, Source Code Pro"><tspan x="0" y="0">Run Fix</tspan></text><text transform="translate(882 494)" fill="#70f1bb" font-size="30" font-family="SourceCodePro-Regular, Source Code Pro"><tspan x="0" y="0">01/01/20</tspan></text><text transform="translate(882 603)" fill="#70f1bb" font-size="30" font-family="SourceCodePro-Regular, Source Code Pro"><tspan x="0" y="0">01/02/20</tspan></text><text transform="translate(882 712)" fill="#70f1bb" font-size="30" font-family="SourceCodePro-Regular, Source Code Pro"><tspan x="0" y="0">01/03/20</tspan></text><text transform="translate(882 821)" fill="#70f1bb" font-size="30" font-family="SourceCodePro-Regular, Source Code Pro"><tspan x="0" y="0">01/04/20</tspan></text><text transform="translate(882 930)" fill="#70f1bb" font-size="30" font-family="SourceCodePro-Regular, Source Code Pro"><tspan x="0" y="0">01/05/20</tspan></text></g></svg>