<svg xmlns="http://www.w3.org/2000/svg" xmlns:xlink="http://www.w3.org/1999/xlink" width="1920" height="1080" viewBox="0 0 1920 1080"><defs><clipPath id="b"><rect width="1920" height="1080"/></clipPath></defs><g id="a" clip-path="url(#b)"><rect width="1920" height="1080" fill="#f3a7a9"/><rect width="875" height="1243" transform="translate(695 -237)" fill="#b0cfe1"/><g transform="translate(59 46)" fill="none" stroke="#fff" stroke-width="2"><rect width="1799" height="988" rx="18" stroke="none"/><rect x="1" y="1" width="1797" height="986" rx="17" fill="none"/></g><line x2="83.722" transform="translate(611.278 131.5)" fill="none" stroke="#fff" stroke-width="2"/><line x2="83.722" transform="translate(611.278 147.5)" fill="none" stroke="#fff" stroke-width="2"/><line x2="83.722" transform="translate(611.278 163.5)" fill="none" stroke="#fff" stroke-width="2"/><line x2="83.722" transform="translate(611.278 179.5)" fill="none" stroke="#fff" stroke-width="2"/><line x2="83.722" transform="translate(611.278 195.5)" fill="none" stroke="#fff" stroke-width="2"/><line x2="83.722" transform="translate(611.278 211.5)" fill="none" stroke="#fff" stroke-width="2"/><line x2="83.722" transform="translate(611.278 227.5)" fill="none" stroke="#fff" stroke-width="2"/><line x2="83.722" transform="translate(611.278 243.5)" fill="none" stroke="#fff" stroke-width="2"/><line x2="83.722" transform="translate(611.278 307.5)" fill="none" stroke="#fff" stroke-width="2"/><line x2="83.722" transform="translate(611.278 323.5)" fill="none" stroke="#fff" stroke-width="2"/><line x2="83.722" transform="translate(611.278 339.5)" fill="none" stroke="#fff" stroke-width="2"/><line x2="83.722" transform="translate(611.278 355.5)" fill="none" stroke="#fff" stroke-width="2"/><line x2="83.722" transform="translate(611.278 371.5)" fill="none" stroke="#fff" stroke-width="2"/><line x2="83.722" transform="translate(611.278 387.5)" fill="none" stroke="#fff" stroke-width="2"/><line x2="83.722" transform="translate(611.278 403.5)" fill="none" stroke="#fff" stroke-width="2"/><line x2="83.722" transform="translate(611.278 419.5)" fill="none" stroke="#fff" stroke-width="2"/><line x2="83.722" transform="translate(611.278 435.5)" fill="none" stroke="#fff" stroke-width="2"/><line x2="83.722" transform="translate(611.278 451.5)" fill="none" stroke="#fff" stroke-width="2"/><line x2="83.722" transform="translate(611.278 467.5)" fill="none" stroke="#fff" stroke-width="2"/><line x2="83.722" transform="translate(611.278 483.5)" fill="none" stroke="#fff" stroke-width="2"/><line x2="83.722" transform="translate(611.278 499.5)" fill="none" stroke="#fff" stroke-width="2"/><line x2="83.722" transform="translate(611.278 515.5)" fill="none" stroke="#fff" stroke-width="2"/><line x2="83.722" transform="translate(611.278 531.5)" fill="none" stroke="#fff" stroke-width="2"/><line x2="83.722" transform="translate(611.278 547.5)" fill="none" stroke="#fff" stroke-width="2"/><line x2="83.722" transform="translate(611.278 563.5)" fill="none" stroke="#fff" stroke-width="2"/><line x2="83.722" transform="translate(611.278 579.5)" fill="none" stroke="#fff" stroke-width="2"/><line x2="83.722" transform="translate(611.278 595.5)" fill="none" stroke="#fff" stroke-width="2"/><line x2="83.722" transform="translate(611.278 611.5)" fill="none" stroke="#fff" stroke-width="2"/><line x2="83.722" transform="translate(611.278 627.5)" fill="none" stroke="#fff" stroke-width="2"/><line x2="83.722" transform="translate(611.278 644.5)" fill="none" stroke="#fff" stroke-width="2"/><line x2="83.722" transform="translate(611.278 660.5)" fill="none" stroke="#fff" stroke-width="2"/><line x2="83.722" transform="translate(611.278 676.5)" fill="none" stroke="#fff" stroke-width="2"/><line x2="83.722" transform="translate(611.278 692.5)" fill="none" stroke="#fff" stroke-width="2"/><line x2="83.722" transform="translate(611.278 708.5)" fill="none" stroke="#fff" stroke-width="2"/><line x2="83.722" transform="translate(611.278 724.5)" fill="none" stroke="#fff" stroke-width="2"/><line x2="83.722" transform="translate(611.278 740.5)" fill="none" stroke="#fff" stroke-width="2"/><line x2="83.722" transform="translate(611.278 756.5)" fill="none" stroke="#fff" stroke-width="2"/><line x2="83.722" transform="translate(611.278 772.5)" fill="none" stroke="#fff" stroke-width="2"/><line x2="83.722" transform="translate(611.278 788.5)" fill="none" stroke="#fff" stroke-width="2"/><line x2="83.722" transform="translate(611.278 804.5)" fill="none" stroke="#fff" stroke-width="2"/><line x2="83.722" transform="translate(611.278 820.5)" fill="none" stroke="#fff" stroke-width="2"/><line x2="83.722" transform="translate(611.278 836.5)" fill="none" stroke="#fff" stroke-width="2"/><line x2="83.722" transform="translate(611.278 852.5)" fill="none" stroke="#fff" stroke-width="2"/><line x2="83.722" transform="translate(611.278 868.5)" fill="none" stroke="#fff" stroke-width="2"/><line x2="83.722" transform="translate(611.278 884.5)" fill="none" stroke="#fff" stroke-width="2"/><line x2="83.722" transform="translate(611.278 916.5)" fill="none" stroke="#fff" stroke-width="2"/><line x2="83.722" transform="translate(611.278 932.5)" fill="none" stroke="#fff" stroke-width="2"/><line x2="83.722" transform="translate(611.278 948.5)" fill="none" stroke="#fff" stroke-width="2"/><line x2="83.722" transform="translate(611.278 901.5)" fill="none" stroke="#fff" stroke-width="2"/><line x2="83.722" transform="translate(611.278 916.5)" fill="none" stroke="#fff" stroke-width="2"/><rect width="937" height="668" transform="translate(-100 244)" fill="#f5bcbc"/><text transform="translate(728 209)" fill="#fff" font-size="135" font-family="SourceCodePro-Regular, Source Code Pro"><tspan x="0" y="0">Plan a Run</tspan></text><text transform="translate(863 304)" fill="#fff" font-size="75" font-family="SourceCodePro-Light, Source Code Pro" font-weight="300"><tspan x="0" y="0">Home</tspan></text><text transform="translate(863 459)" fill="#fff" font-size="75" font-family="SourceCodePro-Light, Source Code Pro" font-weight="300"><tspan x="0" y="0">Add</tspan></text><text transform="translate(863 614)" fill="#fff" font-size="75" font-family="SourceCodePro-Light, Source Code Pro" font-weight="300"><tspan x="0" y="0">Edit</tspan></text><text transform="translate(863 760)" fill="#fff" font-size="75" font-family="SourceCodePro-Light, Source Code Pro" font-weight="300"><tspan x="0" y="0">View</tspan></text><text transform="translate(863 899)" fill="#fff" font-size="75" font-family="SourceCodePro-Light, Source Code Pro" font-weight="300"><tspan x="0" y="0">Route</tspan></text><line x2="272.615" transform="translate(-111.5 171.5)" fill="none" stroke="#fff" stroke-width="2"/><line x2="272.615" transform="translate(-111.5 187.5)" fill="none" stroke="#fff" stroke-width="2"/><line x2="272.615" transform="translate(-111.5 203.5)" fill="none" stroke="#fff" stroke-width="2"/><line x2="272.615" transform="translate(-111.5 219.5)" fill="none" stroke="#fff" stroke-width="2"/><line x2="272.615" transform="translate(-111.5 235.5)" fill="none" stroke="#fff" stroke-width="2"/><line x2="272.615" transform="translate(-111.5 251.5)" fill="none" stroke="#fff" stroke-width="2"/><line x2="272.615" transform="translate(-111.5 267.5)" fill="none" stroke="#fff" stroke-width="2"/><line x2="272.615" transform="translate(-111.5 283.5)" fill="none" stroke="#fff" stroke-width="2"/><line x2="272.615" transform="translate(-111.5 299.5)" fill="none" stroke="#fff" stroke-width="2"/><line x2="272.615" transform="translate(-111.5 315.5)" fill="none" stroke="#fff" stroke-width="2"/><line x2="272.615" transform="translate(-111.5 331.5)" fill="none" stroke="#fff" stroke-width="2"/><line x2="272.615" transform="translate(-111.5 347.5)" fill="none" stroke="#fff" stroke-width="2"/><line x2="272.615" transform="translate(-111.5 363.5)" fill="none" stroke="#fff" stroke-width="2"/><line x2="272.615" transform="translate(-111.5 379.5)" fill="none" stroke="#fff" stroke-width="2"/><line x2="272.615" transform="translate(-111.5 395.5)" fill="none" stroke="#fff" stroke-width="2"/><line x2="272.615" transform="translate(-111.5 411.5)" fill="none" stroke="#fff" stroke-width="2"/><line x2="272.615" transform="translate(-111.5 427.5)" fill="none" stroke="#fff" stroke-width="2"/><line x2="272.615" transform="translate(-111.5 443.5)" fill="none" stroke="#fff" stroke-width="2"/><line x2="272.615" transform="translate(-111.5 459.5)" fill="none" stroke="#fff" stroke-width="2"/><line x2="272.615" transform="translate(-111.5 475.5)" fill="none" stroke="#fff" stroke-width="2"/><line x2="272.615" transform="translate(-111.5 491.5)" fill="none" stroke="#fff" stroke-width="2"/><line x2="272.615" transform="translate(-111.5 507.5)" fill="none" stroke="#fff" stroke-width="2"/><line x2="272.615" transform="translate(-111.5 523.5)" fill="none" stroke="#fff" stroke-width="2"/><line x2="272.615" transform="translate(-111.5 539.5)" fill="none" stroke="#fff" stroke-width="2"/><line x2="272.615" transform="translate(-111.5 555.5)" fill="none" stroke="#fff" stroke-width="2"/><line x2="272.615" transform="translate(-111.5 571.5)" fill="none" stroke="#fff" stroke-width="2"/><line x2="272.615" transform="translate(-111.5 587.5)" fill="none" stroke="#fff" stroke-width="2"/><line x2="272.615" transform="translate(-111.5 603.5)" fill="none" stroke="#fff" stroke-width="2"/><line x2="272.615" transform="translate(-111.5 619.5)" fill="none" stroke="#fff" stroke-width="2"/><line x2="272.615" transform="translate(-111.5 635.5)" fill="none" stroke="#fff" stroke-width="2"/><line x2="272.615" transform="translate(-111.5 651.5)" fill="none" stroke="#fff" stroke-width="2"/><line x2="272.615" transform="translate(-111.5 667.5)" fill="none" stroke="#fff" stroke-width="2"/><line x2="272.615" transform="translate(-111.5 684.5)" fill="none" stroke="#fff" stroke-width="2"/><line x2="272.615" transform="translate(-111.5 700.5)" fill="none" stroke="#fff" stroke-width="2"/><line x2="272.615" transform="translate(-111.5 716.5)" fill="none" stroke="#fff" stroke-width="2"/><line x2="272.615" transform="translate(-111.5 732.5)" fill="none" stroke="#fff" stroke-width="2"/><line x2="272.615" transform="translate(-111.5 748.5)" fill="none" stroke="#fff" stroke-width="2"/><line x2="272.615" transform="translate(-111.5 764.5)" fill="none" stroke="#fff" stroke-width="2"/><line x2="272.615" transform="translate(-111.5 780.5)" fill="none" stroke="#fff" stroke-width="2"/><line x2="272.615" transform="translate(-111.5 796.5)" fill="none" stroke="#fff" stroke-width="2"/><line x2="272.615" transform="translate(-111.5 812.5)" fill="none" stroke="#fff" stroke-width="2"/><line x2="272.615" transform="translate(-111.5 828.5)" fill="none" stroke="#fff" stroke-width="2"/><line x2="272.615" transform="translate(-111.5 844.5)" fill="none" stroke="#fff" stroke-width="2"/><line x2="272.615" transform="translate(-111.5 860.5)" fill="none" stroke="#fff" stroke-width="2"/><line x2="272.615" transform="translate(-111.5 876.5)" fill="none" stroke="#fff" stroke-width="2"/><line x2="272.615" transform="translate(-111.5 892.5)" fill="none" stroke="#fff" stroke-width="2"/><line x2="272.615" transform="translate(-111.5 908.5)" fill="none" stroke="#fff" stroke-width="2"/><line x2="272.615" transform="translate(-111.5 924.5)" fill="none" stroke="#fff" stroke-width="2"/><line x2="272.615" transform="translate(-111.5 956.5)" fill="none" stroke="#fff" stroke-width="2"/><line x2="272.615" transform="translate(-111.5 972.5)" fill="none" stroke="#fff" stroke-width="2"/><line x2="272.615" transform="translate(-111.5 988.5)" fill="none" stroke="#fff" stroke-width="2"/><line x2="272.615" transform="translate(-111.5 941.5)" fill="none" stroke="#fff" stroke-width="2"/><line x2="272.615" transform="translate(-111.5 956.5)" fill="none" stroke="#fff" stroke-width="2"/><line x2="349.5" transform="translate(1570.5 131.5)" fill="none" stroke="#fff" stroke-width="2"/><line x2="349.5" transform="translate(1570.5 147.5)" fill="none" stroke="#fff" stroke-width="2"/><line x2="349.5" transform="translate(1570.5 163.5)" fill="none" stroke="#fff" stroke-width="2"/><line x2="349.5" transform="translate(1570.5 179.5)" fill="none" stroke="#fff" stroke-width="2"/><line x2="349.5" transform="translate(1570.5 195.5)" fill="none" stroke="#fff" stroke-width="2"/><line x2="349.5" transform="translate(1570.5 211.5)" fill="none" stroke="#fff" stroke-width="2"/><line x2="349.5" transform="translate(1570.5 227.5)" fill="none" stroke="#fff" stroke-width="2"/><line x2="349.5" transform="translate(1570.5 243.5)" fill="none" stroke="#fff" stroke-width="2"/><line x2="349.5" transform="translate(1570.5 259.5)" fill="none" stroke="#fff" stroke-width="2"/><line x2="349.5" transform="translate(1570.5 275.5)" fill="none" stroke="#fff" stroke-width="2"/><line x2="349.5" transform="translate(1570.5 291.5)" fill="none" stroke="#fff" stroke-width="2"/><line x2="349.5" transform="translate(1570.5 307.5)" fill="none" stroke="#fff" stroke-width="2"/><line x2="349.5" transform="translate(1570.5 323.5)" fill="none" stroke="#fff" stroke-width="2"/><line x2="349.5" transform="translate(1570.5 339.5)" fill="none" stroke="#fff" stroke-width="2"/><line x2="349.5" transform="translate(1570.5 355.5)" fill="none" stroke="#fff" stroke-width="2"/><line x2="349.5" transform="translate(1570.5 371.5)" fill="none" stroke="#fff" stroke-width="2"/><line x2="349.5" transform="translate(1570.5 387.5)" fill="none" stroke="#fff" stroke-width="2"/><line x2="349.5" transform="translate(1570.5 403.5)" fill="none" stroke="#fff" stroke-width="2"/><line x2="349.5" transform="translate(1570.5 419.5)" fill="none" stroke="#fff" stroke-width="2"/><line x2="349.5" transform="translate(1570.5 435.5)" fill="none" stroke="#fff" stroke-width="2"/><line x2="349.5" transform="translate(1570.5 451.5)" fill="none" stroke="#fff" stroke-width="2"/><line x2="349.5" transform="translate(1570.5 467.5)" fill="none" stroke="#fff" stroke-width="2"/><line x2="349.5" transform="translate(1570.5 483.5)" fill="none" stroke="#fff" stroke-width="2"/><line x2="349.5" transform="translate(1570.5 499.5)" fill="none" stroke="#fff" stroke-width="2"/><line x2="349.5" transform="translate(1570.5 515.5)" fill="none" stroke="#fff" stroke-width="2"/><line x2="349.5" transform="translate(1570.5 531.5)" fill="none" stroke="#fff" stroke-width="2"/><line x2="349.5" transform="translate(1570.5 547.5)" fill="none" stroke="#fff" stroke-width="2"/><line x2="349.5" transform="translate(1570.5 563.5)" fill="none" stroke="#fff" stroke-width="2"/><line x2="349.5" transform="translate(1570.5 579.5)" fill="none" stroke="#fff" stroke-width="2"/><line x2="349.5" transform="translate(1570.5 595.5)" fill="none" stroke="#fff" stroke-width="2"/><line x2="349.5" transform="translate(1570.5 611.5)" fill="none" stroke="#fff" stroke-width="2"/><line x2="349.5" transform="translate(1570.5 627.5)" fill="none" stroke="#fff" stroke-width="2"/><line x2="349.5" transform="translate(1570.5 644.5)" fill="none" stroke="#fff" stroke-width="2"/><line x2="349.5" transform="translate(1570.5 660.5)" fill="none" stroke="#fff" stroke-width="2"/><line x2="349.5" transform="translate(1570.5 676.5)" fill="none" stroke="#fff" stroke-width="2"/><line x2="349.5" transform="translate(1570.5 692.5)" fill="none" stroke="#fff" stroke-width="2"/><line x2="349.5" transform="translate(1570.5 708.5)" fill="none" stroke="#fff" stroke-width="2"/><line x2="349.5" transform="translate(1570.5 724.5)" fill="none" stroke="#fff" stroke-width="2"/><line x2="349.5" transform="translate(1570.5 740.5)" fill="none" stroke="#fff" stroke-width="2"/><line x2="349.5" transform="translate(1570.5 756.5)" fill="none" stroke="#fff" stroke-width="2"/><line x2="349.5" transform="translate(1570.5 772.5)" fill="none" stroke="#fff" stroke-width="2"/><line x2="349.5" transform="translate(1570.5 788.5)" fill="none" stroke="#fff" stroke-width="2"/><line x2="349.5" transform="translate(1570.5 804.5)" fill="none" stroke="#fff" stroke-width="2"/><line x2="349.5" transform="translate(1570.5 820.5)" fill="none" stroke="#fff" stroke-width="2"/><line x2="349.5" transform="translate(1570.5 836.5)" fill="none" stroke="#fff" stroke-width="2"/><line x2="349.5" transform="translate(1570.5 852.5)" fill="none" stroke="#fff" stroke-width="2"/><line x2="349.5" transform="translate(1570.5 868.5)" fill="none" stroke="#fff" stroke-width="2"/><line x2="349.5" transform="translate(1570.5 884.5)" fill="none" stroke="#fff" stroke-width="2"/><line x2="349.5" transform="translate(1570.5 916.5)" fill="none" stroke="#fff" stroke-width="2"/><line x2="349.5" transform="translate(1570.5 932.5)" fill="none" stroke="#fff" stroke-width="2"/><line x2="349.5" transform="translate(1570.5 948.5)" fill="none" stroke="#fff" stroke-width="2"/><line x2="349.5" transform="translate(1570.5 901.5)" fill="none" stroke="#fff" stroke-width="2"/><line x2="349.5" transform="translate(1570.5 916.5)" fill="none" stroke="#fff" stroke-width="2"/><circle cx="2" cy="2" r="2" transform="translate(703 963)" fill="#fff"/><circle cx="2" cy="2" r="2" transform="translate(703 975)" fill="#fff"/><circle cx="2" cy="2" r="2" transform="translate(703 987)" fill="#fff"/><circle cx="2" cy="2" r="2" transform="translate(714 963)" fill="#fff"/><circle cx="2" cy="2" r="2" transform="translate(714 975)" fill="#fff"/><circle cx="2" cy="2" r="2" transform="translate(714 987)" fill="#fff"/><circle cx="2" cy="2" r="2" transform="translate(725 963)" fill="#fff"/><circle cx="2" cy="2" r="2" transform="translate(725 975)" fill="#fff"/><circle cx="2" cy="2" r="2" transform="translate(725 987)" fill="#fff"/><circle cx="2" cy="2" r="2" transform="translate(736 963)" fill="#fff"/><circle cx="2" cy="2" r="2" transform="translate(736 975)" fill="#fff"/><circle cx="2" cy="2" r="2" transform="translate(736 987)" fill="#fff"/><circle cx="2" cy="2" r="2" transform="translate(747 963)" fill="#fff"/><circle cx="2" cy="2" r="2" transform="translate(747 975)" fill="#fff"/><circle cx="2" cy="2" r="2" transform="translate(747 987)" fill="#fff"/><circle cx="2" cy="2" r="2" transform="translate(758 963)" fill="#fff"/><circle cx="2" cy="2" r="2" transform="translate(758 975)" fill="#fff"/><circle cx="2" cy="2" r="2" transform="translate(758 987)" fill="#fff"/><circle cx="2" cy="2" r="2" transform="translate(769 963)" fill="#fff"/><circle cx="2" cy="2" r="2" transform="translate(769 975)" fill="#fff"/><circle cx="2" cy="2" r="2" transform="translate(769 987)" fill="#fff"/><circle cx="2" cy="2" r="2" transform="translate(780 963)" fill="#fff"/><circle cx="2" cy="2" r="2" transform="translate(780 975)" fill="#fff"/><circle cx="2" cy="2" r="2" transform="translate(780 987)" fill="#fff"/><circle cx="2" cy="2" r="2" transform="translate(791 963)" fill="#fff"/><circle cx="2" cy="2" r="2" transform="translate(791 975)" fill="#fff"/><circle cx="2" cy="2" r="2" transform="translate(791 987)" fill="#fff"/><circle cx="2" cy="2" r="2" transform="translate(802 963)" fill="#fff"/><circle cx="2" cy="2" r="2" transform="translate(802 975)" fill="#fff"/><circle cx="2" cy="2" r="2" transform="translate(802 987)" fill="#fff"/><circle cx="2" cy="2" r="2" transform="translate(813 963)" fill="#fff"/><circle cx="2" cy="2" r="2" transform="translate(813 975)" fill="#fff"/><circle cx="2" cy="2" r="2" transform="translate(813 987)" fill="#fff"/><circle cx="2" cy="2" r="2" transform="translate(824 963)" fill="#fff"/><circle cx="2" cy="2" r="2" transform="translate(824 975)" fill="#fff"/><circle cx="2" cy="2" r="2" transform="translate(824 987)" fill="#fff"/><circle cx="2" cy="2" r="2" transform="translate(835 963)" fill="#fff"/><circle cx="2" cy="2" r="2" transform="translate(835 975)" fill="#fff"/><circle cx="2" cy="2" r="2" transform="translate(835 987)" fill="#fff"/><circle cx="2" cy="2" r="2" transform="translate(846 963)" fill="#fff"/><circle cx="2" cy="2" r="2" transform="translate(846 975)" fill="#fff"/><circle cx="2" cy="2" r="2" transform="translate(846 987)" fill="#fff"/><circle cx="2" cy="2" r="2" transform="translate(857 963)" fill="#fff"/><circle cx="2" cy="2" r="2" transform="translate(857 975)" fill="#fff"/><circle cx="2" cy="2" r="2" transform="translate(857 987)" fill="#fff"/><circle cx="2" cy="2" r="2" transform="translate(868 963)" fill="#fff"/><circle cx="2" cy="2" r="2" transform="translate(868 975)" fill="#fff"/><circle cx="2" cy="2" r="2" transform="translate(868 987)" fill="#fff"/><circle cx="2" cy="2" r="2" transform="translate(879 963)" fill="#fff"/><circle cx="2" cy="2" r="2" transform="translate(879 975)" fill="#fff"/><circle cx="2" cy="2" r="2" transform="translate(879 987)" fill="#fff"/><circle cx="2" cy="2" r="2" transform="translate(890 963)" fill="#fff"/><circle cx="2" cy="2" r="2" transform="translate(890 975)" fill="#fff"/><circle cx="2" cy="2" r="2" transform="translate(890 987)" fill="#fff"/><circle cx="2" cy="2" r="2" transform="translate(901 963)" fill="#fff"/><circle cx="2" cy="2" r="2" transform="translate(901 975)" fill="#fff"/><circle cx="2" cy="2" r="2" transform="translate(901 987)" fill="#fff"/><circle cx="2" cy="2" r="2" transform="translate(912 963)" fill="#fff"/><circle cx="2" cy="2" r="2" transform="translate(912 975)" fill="#fff"/><circle cx="2" cy="2" r="2" transform="translate(912 987)" fill="#fff"/><circle cx="2" cy="2" r="2" transform="translate(923 963)" fill="#fff"/><circle cx="2" cy="2" r="2" transform="translate(923 975)" fill="#fff"/><circle cx="2" cy="2" r="2" transform="translate(923 987)" fill="#fff"/><circle cx="2" cy="2" r="2" transform="translate(934 963)" fill="#fff"/><circle cx="2" cy="2" r="2" transform="translate(934 975)" fill="#fff"/><circle cx="2" cy="2" r="2" transform="translate(934 987)" fill="#fff"/><circle cx="2" cy="2" r="2" transform="translate(945 963)" fill="#fff"/><circle cx="2" cy="2" r="2" transform="translate(945 975)" fill="#fff"/><circle cx="2" cy="2" r="2" transform="translate(945 987)" fill="#fff"/><circle cx="2" cy="2" r="2" transform="translate(956 963)" fill="#fff"/><circle cx="2" cy="2" r="2" transform="translate(956 975)" fill="#fff"/><circle cx="2" cy="2" r="2" transform="translate(956 987)" fill="#fff"/><circle cx="2" cy="2" r="2" transform="translate(967 963)" fill="#fff"/><circle cx="2" cy="2" r="2" transform="translate(967 975)" fill="#fff"/><circle cx="2" cy="2" r="2" transform="translate(967 987)" fill="#fff"/><circle cx="2" cy="2" r="2" transform="translate(978 963)" fill="#fff"/><circle cx="2" cy="2" r="2" transform="translate(978 975)" fill="#fff"/><circle cx="2" cy="2" r="2" transform="translate(978 987)" fill="#fff"/><circle cx="2" cy="2" r="2" transform="translate(989 963)" fill="#fff"/><circle cx="2" cy="2" r="2" transform="translate(989 975)" fill="#fff"/><circle cx="2" cy="2" r="2" transform="translate(989 987)" fill="#fff"/><circle cx="2" cy="2" r="2" transform="translate(1000 963)" fill="#fff"/><circle cx="2" cy="2" r="2" transform="translate(1000 975)" fill="#fff"/><circle cx="2" cy="2" r="2" transform="translate(1000 987)" fill="#fff"/><circle cx="2" cy="2" r="2" transform="translate(1011 963)" fill="#fff"/><circle cx="2" cy="2" r="2" transform="translate(1011 975)" fill="#fff"/><circle cx="2" cy="2" r="2" transform="translate(1011 987)" fill="#fff"/><circle cx="2" cy="2" r="2" transform="translate(1022 963)" fill="#fff"/><circle cx="2" cy="2" r="2" transform="translate(1022 975)" fill="#fff"/><circle cx="2" cy="2" r="2" transform="translate(1022 987)" fill="#fff"/><circle cx="2" cy="2" r="2" transform="translate(1033 963)" fill="#fff"/><circle cx="2" cy="2" r="2" transform="translate(1033 975)" fill="#fff"/><circle cx="2" cy="2" r="2" transform="translate(1033 987)" fill="#fff"/><circle cx="2" cy="2" r="2" transform="translate(1044 963)" fill="#fff"/><circle cx="2" cy="2" r="2" transform="translate(1044 975)" fill="#fff"/><circle cx="2" cy="2" r="2" transform="translate(1044 987)" fill="#fff"/><circle cx="2" cy="2" r="2" transform="translate(1055 963)" fill="#fff"/><circle cx="2" cy="2" r="2" transform="translate(1055 975)" fill="#fff"/><circle cx="2" cy="2" r="2" transform="translate(1055 987)" fill="#fff"/><circle cx="2" cy="2" r="2" transform="translate(1066 963)" fill="#fff"/><circle cx="2" cy="2" r="2" transform="translate(1066 975)" fill="#fff"/><circle cx="2" cy="2" r="2" transform="translate(1066 987)" fill="#fff"/><circle cx="2" cy="2" r="2" transform="translate(1077 963)" fill="#fff"/><circle cx="2" cy="2" r="2" transform="translate(1077 975)" fill="#fff"/><circle cx="2" cy="2" r="2" transform="translate(1077 987)" fill="#fff"/><circle cx="2" cy="2" r="2" transform="translate(1088 963)" fill="#fff"/><circle cx="2" cy="2" r="2" transform="translate(1088 975)" fill="#fff"/><circle cx="2" cy="2" r="2" transform="translate(1088 987)" fill="#fff"/><circle cx="2" cy="2" r="2" transform="translate(1099 963)" fill="#fff"/><circle cx="2" cy="2" r="2" transform="translate(1099 975)" fill="#fff"/><circle cx="2" cy="2" r="2" transform="translate(1099 987)" fill="#fff"/><circle cx="2" cy="2" r="2" transform="translate(1110 963)" fill="#fff"/><circle cx="2" cy="2" r="2" transform="translate(1110 975)" fill="#fff"/><circle cx="2" cy="2" r="2" transform="translate(1110 987)" fill="#fff"/><circle cx="2" cy="2" r="2" transform="translate(1121 963)" fill="#fff"/><circle cx="2" cy="2" r="2" transform="translate(1121 975)" fill="#fff"/><circle cx="2" cy="2" r="2" transform="translate(1121 987)" fill="#fff"/><circle cx="2" cy="2" r="2" transform="translate(1132 963)" fill="#fff"/><circle cx="2" cy="2" r="2" transform="translate(1132 975)" fill="#fff"/><circle cx="2" cy="2" r="2" transform="translate(1132 987)" fill="#fff"/><circle cx="2" cy="2" r="2" transform="translate(1143 963)" fill="#fff"/><circle cx="2" cy="2" r="2" transform="translate(1143 975)" fill="#fff"/><circle cx="2" cy="2" r="2" transform="translate(1143 987)" fill="#fff"/><circle cx="2" cy="2" r="2" transform="translate(1154 963)" fill="#fff"/><circle cx="2" cy="2" r="2" transform="translate(1154 975)" fill="#fff"/><circle cx="2" cy="2" r="2" transform="translate(1154 987)" fill="#fff"/><circle cx="2" cy="2" r="2" transform="translate(1165 963)" fill="#fff"/><circle cx="2" cy="2" r="2" transform="translate(1165 975)" fill="#fff"/><circle cx="2" cy="2" r="2" transform="translate(1165 987)" fill="#fff"/><circle cx="2" cy="2" r="2" transform="translate(1176 963)" fill="#fff"/><circle cx="2" cy="2" r="2" transform="translate(1176 975)" fill="#fff"/><circle cx="2" cy="2" r="2" transform="translate(1176 987)" fill="#fff"/><circle cx="2" cy="2" r="2" transform="translate(1187 963)" fill="#fff"/><circle cx="2" cy="2" r="2" transform="translate(1187 975)" fill="#fff"/><circle cx="2" cy="2" r="2" transform="translate(1187 987)" fill="#fff"/><circle cx="2" cy="2" r="2" transform="translate(1198 963)" fill="#fff"/><circle cx="2" cy="2" r="2" transform="translate(1198 975)" fill="#fff"/><circle cx="2" cy="2" r="2" transform="translate(1198 987)" fill="#fff"/><circle cx="2" cy="2" r="2" transform="translate(1209 963)" fill="#fff"/><circle cx="2" cy="2" r="2" transform="translate(1209 975)" fill="#fff"/><circle cx="2" cy="2" r="2" transform="translate(1209 987)" fill="#fff"/><circle cx="2" cy="2" r="2" transform="translate(1220 963)" fill="#fff"/><circle cx="2" cy="2" r="2" transform="translate(1220 975)" fill="#fff"/><circle cx="2" cy="2" r="2" transform="translate(1220 987)" fill="#fff"/><circle cx="2" cy="2" r="2" transform="translate(1231 963)" fill="#fff"/><circle cx="2" cy="2" r="2" transform="translate(1231 975)" fill="#fff"/><circle cx="2" cy="2" r="2" transform="translate(1231 987)" fill="#fff"/><circle cx="2" cy="2" r="2" transform="translate(1242 963)" fill="#fff"/><circle cx="2" cy="2" r="2" transform="translate(1242 975)" fill="#fff"/><circle cx="2" cy="2" r="2" transform="translate(1242 987)" fill="#fff"/><circle cx="2" cy="2" r="2" transform="translate(1253 963)" fill="#fff"/><circle cx="2" cy="2" r="2" transform="translate(1253 975)" fill="#fff"/><circle cx="2" cy="2" r="2" transform="translate(1253 987)" fill="#fff"/><circle cx="2" cy="2" r="2" transform="translate(1264 963)" fill="#fff"/><circle cx="2" cy="2" r="2" transform="translate(1264 975)" fill="#fff"/><circle cx="2" cy="2" r="2" transform="translate(1264 987)" fill="#fff"/><circle cx="2" cy="2" r="2" transform="translate(1275 963)" fill="#fff"/><circle cx="2" cy="2" r="2" transform="translate(1275 975)" fill="#fff"/><circle cx="2" cy="2" r="2" transform="translate(1275 987)" fill="#fff"/><circle cx="2" cy="2" r="2" transform="translate(1286 963)" fill="#fff"/><circle cx="2" cy="2" r="2" transform="translate(1286 975)" fill="#fff"/><circle cx="2" cy="2" r="2" transform="translate(1286 987)" fill="#fff"/><circle cx="2" cy="2" r="2" transform="translate(1297 963)" fill="#fff"/><circle cx="2" cy="2" r="2" transform="translate(1297 975)" fill="#fff"/><circle cx="2" cy="2" r="2" transform="translate(1297 987)" fill="#fff"/><circle cx="2" cy="2" r="2" transform="translate(1308 963)" fill="#fff"/><circle cx="2" cy="2" r="2" transform="translate(1308 975)" fill="#fff"/><circle cx="2" cy="2" r="2" transform="translate(1308 987)" fill="#fff"/><circle cx="2" cy="2" r="2" transform="translate(1319 963)" fill="#fff"/><circle cx="2" cy="2" r="2" transform="translate(1319 975)" fill="#fff"/><circle cx="2" cy="2" r="2" transform="translate(1319 987)" fill="#fff"/><circle cx="2" cy="2" r="2" transform="translate(1330 963)" fill="#fff"/><circle cx="2" cy="2" r="2" transform="translate(1330 975)" fill="#fff"/><circle cx="2" cy="2" r="2" transform="translate(1330 987)" fill="#fff"/><circle cx="2" cy="2" r="2" transform="translate(1341 963)" fill="#fff"/><circle cx="2" cy="2" r="2" transform="translate(1341 975)" fill="#fff"/><circle cx="2" cy="2" r="2" transform="translate(1341 987)" fill="#fff"/><circle cx="2" cy="2" r="2" transform="translate(1352 963)" fill="#fff"/><circle cx="2" cy="2" r="2" transform="translate(1352 975)" fill="#fff"/><circle cx="2" cy="2" r="2" transform="translate(1352 987)" fill="#fff"/><circle cx="2" cy="2" r="2" transform="translate(1363 963)" fill="#fff"/><circle cx="2" cy="2" r="2" transform="translate(1363 975)" fill="#fff"/><circle cx="2" cy="2" r="2" transform="translate(1363 987)" fill="#fff"/><circle cx="2" cy="2" r="2" transform="translate(1374 963)" fill="#fff"/><circle cx="2" cy="2" r="2" transform="translate(1374 975)" fill="#fff"/><circle cx="2" cy="2" r="2" transform="translate(1374 987)" fill="#fff"/><circle cx="2" cy="2" r="2" transform="translate(1385 963)" fill="#fff"/><circle cx="2" cy="2" r="2" transform="translate(1385 975)" fill="#fff"/><circle cx="2" cy="2" r="2" transform="translate(1385 987)" fill="#fff"/><circle cx="2" cy="2" r="2" transform="translate(1396 963)" fill="#fff"/><circle cx="2" cy="2" r="2" transform="translate(1396 975)" fill="#fff"/><circle cx="2" cy="2" r="2" transform="translate(1396 987)" fill="#fff"/><circle cx="2" cy="2" r="2" transform="translate(1407 963)" fill="#fff"/><circle cx="2" cy="2" r="2" transform="translate(1407 975)" fill="#fff"/><circle cx="2" cy="2" r="2" transform="translate(1407 987)" fill="#fff"/><circle cx="2" cy="2" r="2" transform="translate(1418 963)" fill="#fff"/><circle cx="2" cy="2" r="2" transform="translate(1418 975)" fill="#fff"/><circle cx="2" cy="2" r="2" transform="translate(1418 987)" fill="#fff"/><circle cx="2" cy="2" r="2" transform="translate(1429 963)" fill="#fff"/><circle cx="2" cy="2" r="2" transform="translate(1429 975)" fill="#fff"/><circle cx="2" cy="2" r="2" transform="translate(1429 987)" fill="#fff"/><circle cx="2" cy="2" r="2" transform="translate(1440 963)" fill="#fff"/><circle cx="2" cy="2" r="2" transform="translate(1440 975)" fill="#fff"/><circle cx="2" cy="2" r="2" transform="translate(1440 987)" fill="#fff"/><circle cx="2" cy="2" r="2" transform="translate(1451 963)" fill="#fff"/><circle cx="2" cy="2" r="2" transform="translate(1451 975)" fill="#fff"/><circle cx="2" cy="2" r="2" transform="translate(1451 987)" fill="#fff"/><circle cx="2" cy="2" r="2" transform="translate(1462 963)" fill="#fff"/><circle cx="2" cy="2" r="2" transform="translate(1462 975)" fill="#fff"/><circle cx="2" cy="2" r="2" transform="translate(1462 987)" fill="#fff"/><circle cx="2" cy="2" r="2" transform="translate(1473 963)" fill="#fff"/><circle cx="2" cy="2" r="2" transform="translate(1473 975)" fill="#fff"/><circle cx="2" cy="2" r="2" transform="translate(1473 987)" fill="#fff"/><circle cx="2" cy="2" r="2" transform="translate(1484 963)" fill="#fff"/><circle cx="2" cy="2" r="2" transform="translate(1484 975)" fill="#fff"/><circle cx="2" cy="2" r="2" transform="translate(1484 987)" fill="#fff"/><circle cx="2" cy="2" r="2" transform="translate(1495 963)" fill="#fff"/><circle cx="2" cy="2" r="2" transform="translate(1495 975)" fill="#fff"/><circle cx="2" cy="2" r="2" transform="translate(1495 987)" fill="#fff"/><circle cx="2" cy="2" r="2" transform="translate(1506 963)" fill="#fff"/><circle cx="2" cy="2" r="2" transform="translate(1506 975)" fill="#fff"/><circle cx="2" cy="2" r="2" transform="translate(1506 987)" fill="#fff"/><circle cx="2" cy="2" r="2" transform="translate(1517 963)" fill="#fff"/><circle cx="2" cy="2" r="2" transform="translate(1517 975)" fill="#fff"/><circle cx="2" cy="2" r="2" transform="translate(1517 987)" fill="#fff"/><circle cx="2" cy="2" r="2" transform="translate(1528 963)" fill="#fff"/><circle cx="2" cy="2" r="2" transform="translate(1528 975)" fill="#fff"/><circle cx="2" cy="2" r="2" transform="translate(1528 987)" fill="#fff"/><circle cx="2" cy="2" r="2" transform="translate(1539 963)" fill="#fff"/><circle cx="2" cy="2" r="2" transform="translate(1539 975)" fill="#fff"/><circle cx="2" cy="2" r="2" transform="translate(1539 987)" fill="#fff"/><circle cx="2" cy="2" r="2" transform="translate(1550 963)" fill="#fff"/><circle cx="2" cy="2" r="2" transform="translate(1550 975)" fill="#fff"/><circle cx="2" cy="2" r="2" transform="translate(1550 987)" fill="#fff"/><circle cx="2" cy="2" r="2" transform="translate(1561 963)" fill="#fff"/><circle cx="2" cy="2" r="2" transform="translate(1561 975)" fill="#fff"/><circle cx="2" cy="2" r="2" transform="translate(1561 987)" fill="#fff"/><path d="M34.394,4.5A35.9,35.9,0,0,0,1,27.269a35.873,35.873,0,0,0,66.788,0A35.9,35.9,0,0,0,34.394,4.5Zm0,37.948A15.179,15.179,0,1,1,49.573,27.269,15.185,15.185,0,0,1,34.394,42.448Zm0-24.286A9.107,9.107,0,1,0,43.5,27.269,9.1,9.1,0,0,0,34.394,18.161Z" transform="translate(736 408.219)" fill="#fff"/><path d="M26.287,54.609V36.394H38.43V54.609H53.609V30.322h9.107L32.358,3,2,30.322h9.107V54.609Z" transform="translate(735.072 253)" fill="#fff"/><path d="M35.394,17.179H29.322V29.322H17.179v6.072H29.322V47.537h6.072V35.394H47.537V29.322H35.394ZM32.358,2A30.358,30.358,0,1,0,62.716,32.358,30.369,30.369,0,0,0,32.358,2Zm0,54.644A24.286,24.286,0,1,1,56.645,32.358,24.319,24.319,0,0,1,32.358,56.644Z" transform="translate(742 561.187)" fill="#fff"/><path d="M3,46.265V57.65H14.384L47.96,24.074,36.576,12.689Zm53.764-31a3.023,3.023,0,0,0,0-4.28l-7.1-7.1a3.023,3.023,0,0,0-4.28,0L39.824,9.441,51.209,20.825l5.556-5.556Z" transform="translate(745.072 705.908)" fill="#fff"/><path d="M35.07,13.623A6.072,6.072,0,1,0,29,7.552,6.089,6.089,0,0,0,35.07,13.623Zm-10.929,42.2,3.036-13.358,6.375,6.072V66.75h6.072V43.981L33.248,37.91,35.07,28.8a22.23,22.23,0,0,0,16.7,7.59V30.32a14.933,14.933,0,0,1-13.054-7.286l-3.036-4.857a6.261,6.261,0,0,0-5.161-3.036c-.911,0-1.518.3-2.429.3L12.3,22.123V36.392h6.072V26.07l5.464-2.125L18.98,48.535,4.1,45.5,2.89,51.571Z" transform="translate(746.182 846.75)" fill="#fff"/></g></svg>