<svg xmlns="http://www.w3.org/2000/svg" xmlns:xlink="http://www.w3.org/1999/xlink" width="1920" height="1080" viewBox="0 0 1920 1080"><defs><clipPath id="b"><rect width="1920" height="1080"/></clipPath></defs><g id="a" clip-path="url(#b)"><rect width="1920" height="1080" fill="#ec565c"/><rect width="1559" height="850" transform="translate(398 118)" fill="#e9bb8c"/><rect width="918" height="190" transform="translate(0 228)" fill="#eede90"/><g transform="translate(59 46)" fill="none" stroke="#fff" stroke-width="2"><rect width="1799" height="988" rx="18" stroke="none"/><rect x="1" y="1" width="1797" height="986" rx="17" fill="none"/></g><line x2="1566.345" transform="translate(463.992 535.5)" fill="none" stroke="#fff" stroke-width="2"/><line x2="1566.345" transform="translate(463.992 551.5)" fill="none" stroke="#fff" stroke-width="2"/><line x2="1566.345" transform="translate(463.992 567.5)" fill="none" stroke="#fff" stroke-width="2"/><line x2="1566.345" transform="translate(463.992 583.5)" fill="none" stroke="#fff" stroke-width="2"/><line x2="1566.345" transform="translate(463.992 599.5)" fill="none" stroke="#fff" stroke-width="2"/><line x2="1566.345" transform="translate(463.992 615.5)" fill="none" stroke="#fff" stroke-width="2"/><line x2="1566.345" transform="translate(463.992 631.5)" fill="none" stroke="#fff" stroke-width="2"/><line x2="1566.345" transform="translate(463.992 647.5)" fill="none" stroke="#fff" stroke-width="2"/><line x2="1566.345" transform="translate(463.992 663.5)" fill="none" stroke="#fff" stroke-width="2"/><line x2="1566.345" transform="translate(463.992 679.5)" fill="none" stroke="#fff" stroke-width="2"/><line x2="1566.345" transform="translate(463.992 695.5)" fill="none" stroke="#fff" stroke-width="2"/><line x2="1566.345" transform="translate(463.992 711.5)" fill="none" stroke="#fff" stroke-width="2"/><line x2="1566.345" transform="translate(463.992 727.5)" fill="none" stroke="#fff" stroke-width="2"/><line x2="1566.345" transform="translate(463.992 743.5)" fill="none" stroke="#fff" stroke-width="2"/><line x2="1566.345" transform="translate(463.992 759.5)" fill="none" stroke="#fff" stroke-width="2"/><line x2="1566.345" transform="translate(463.992 775.5)" fill="none" stroke="#fff" stroke-width="2"/><line x2="1566.345" transform="translate(463.992 791.5)" fill="none" stroke="#fff" stroke-width="2"/><line x2="1566.345" transform="translate(463.992 807.5)" fill="none" stroke="#fff" stroke-width="2"/><line x2="1566.345" transform="translate(463.992 823.5)" fill="none" stroke="#fff" stroke-width="2"/><line x2="1566.345" transform="translate(463.992 839.5)" fill="none" stroke="#fff" stroke-width="2"/><line x2="1566.345" transform="translate(463.992 855.5)" fill="none" stroke="#fff" stroke-width="2"/><line x2="1566.345" transform="translate(463.992 871.5)" fill="none" stroke="#fff" stroke-width="2"/><line x2="1566.345" transform="translate(463.992 887.5)" fill="none" stroke="#fff" stroke-width="2"/><line x2="1566.345" transform="translate(463.992 903.5)" fill="none" stroke="#fff" stroke-width="2"/><line x2="1566.345" transform="translate(463.992 919.5)" fill="none" stroke="#fff" stroke-width="2"/><line x2="1566.345" transform="translate(463.992 935.5)" fill="none" stroke="#fff" stroke-width="2"/><line x2="1566.345" transform="translate(463.992 951.5)" fill="none" stroke="#fff" stroke-width="2"/><text transform="translate(439 371)" fill="#fff" font-size="133" font-family="SourceCodePro-Regular, Source Code Pro"><tspan x="0" y="0">Routes</tspan></text><line x2="1566.345" transform="translate(463.992 439.5)" fill="none" stroke="#fff" stroke-width="2"/><line x2="1566.345" transform="translate(463.992 455.5)" fill="none" stroke="#fff" stroke-width="2"/><line x2="1566.345" transform="translate(463.992 471.5)" fill="none" stroke="#fff" stroke-width="2"/><line x2="1566.345" transform="translate(463.992 487.5)" fill="none" stroke="#fff" stroke-width="2"/><line x2="1566.345" transform="translate(463.992 503.5)" fill="none" stroke="#fff" stroke-width="2"/><line x2="1566.345" transform="translate(463.992 519.5)" fill="none" stroke="#fff" stroke-width="2"/><path d="M34.394,4.5A35.9,35.9,0,0,0,1,27.269a35.873,35.873,0,0,0,66.788,0A35.9,35.9,0,0,0,34.394,4.5Zm0,37.948A15.179,15.179,0,1,1,49.573,27.269,15.185,15.185,0,0,1,34.394,42.448Zm0-24.286A9.107,9.107,0,1,0,43.5,27.269,9.1,9.1,0,0,0,34.394,18.161Z" transform="translate(305 460.219)" fill="#fff"/><path d="M26.287,54.609V36.394H38.43V54.609H53.609V30.322h9.107L32.358,3,2,30.322h9.107V54.609Z" transform="translate(304.072 305)" fill="#fff"/><path d="M35.394,17.179H29.322V29.322H17.179v6.072H29.322V47.537h6.072V35.394H47.537V29.322H35.394ZM32.358,2A30.358,30.358,0,1,0,62.716,32.358,30.369,30.369,0,0,0,32.358,2Zm0,54.644A24.286,24.286,0,1,1,56.645,32.358,24.319,24.319,0,0,1,32.358,56.644Z" transform="translate(311 613.187)" fill="#fff"/><path d="M3,46.265V57.65H14.384L47.96,24.074,36.576,12.689Zm53.764-31a3.023,3.023,0,0,0,0-4.28l-7.1-7.1a3.023,3.023,0,0,0-4.28,0L39.824,9.441,51.209,20.825l5.556-5.556Z" transform="translate(314.072 757.908)" fill="#fff"/><path d="M35.07,13.623A6.072,6.072,0,1,0,29,7.552,6.089,6.089,0,0,0,35.07,13.623Zm-10.929,42.2,3.036-13.358,6.375,6.072V66.75h6.072V43.981L33.248,37.91,35.07,28.8a22.23,22.23,0,0,0,16.7,7.59V30.32a14.933,14.933,0,0,1-13.054-7.286l-3.036-4.857a6.261,6.261,0,0,0-5.161-3.036c-.911,0-1.518.3-2.429.3L12.3,22.123V36.392h6.072V26.07l5.464-2.125L18.98,48.535,4.1,45.5,2.89,51.571Z" transform="translate(315.182 898.75)" fill="#fff"/><rect width="467" height="80" rx="7" transform="translate(451 433)" fill="#fff"/><rect width="467" height="80" rx="7" transform="translate(451 542)" fill="#fff"/><rect width="467" height="80" rx="7" transform="translate(451 651)" fill="#fff"/><rect width="467" height="80" rx="7" transform="translate(451 760)" fill="#fff"/><rect width="467" height="80" rx="7" transform="translate(451 869)" fill="#fff"/><rect width="832" height="659" rx="7" transform="translate(990 344)" fill="#fff"/><text transform="translate(471 454)" fill="#e9bb8c" font-size="30" font-family="SourceCodePro-Regular, Source Code Pro"><tspan x="142.5" y="30">Run One</tspan></text><text transform="translate(471 563)" fill="#e9bb8c" font-size="30" font-family="SourceCodePro-Regular, Source Code Pro"><tspan x="142.5" y="30">Run Two</tspan></text><text transform="translate(471 672)" fill="#e9bb8c" font-size="30" font-family="SourceCodePro-Regular, Source Code Pro"><tspan x="142.5" y="30">Run Three</tspan></text><text transform="translate(471 781)" fill="#e9bb8c" font-size="30" font-family="SourceCodePro-Regular, Source Code Pro"><tspan x="142.5" y="30">Run Four</tspan></text><text transform="translate(471 890)" fill="#e9bb8c" font-size="30" font-family="SourceCodePro-Regular, Source Code Pro"><tspan x="142.5" y="30">Run Fix</tspan></text><path d="M11073.89,417.54l-53.806,67.35-25.3,86.209v77.052s31.209,35.408,25.3,74.344-36.707,43.77-48.943,81.4-12.235,40.1,0,69.12,15.7,35.225,48.943,46.967,51.674-7.88,84.022,0,45.372,31.518,45.372,31.518h94.232s54.454-11.9,84.827-31.518,16.72-41.87,36.662-46.967,43.108,26.581,43.108,26.581l63.336,20.386,92.219-20.386,30.118-57.462,29.341-119.639V648.151s22.332-65.979,0-77.052-51.409,3.81-89.328,32.76-62.35,83.04-62.35,83.04-42.358,45.283-63.336,35.6-20.574-74.344-20.574-74.344l65.35-108.984s40.531-70.629,18.561-94.172-106.444,0-106.444,0l-121.489,60.217-33.675,33.955s-9.177,40.421-30.8,31.932-41.771-27.5-55.7-65.887,12.413-65.754,0-87.672S11073.89,417.54,11073.89,417.54Z" transform="translate(-9910 10)" fill="none" stroke="#ec565c" stroke-width="10"/></g></svg>